<?xml version="1.0" encoding="UTF-8" standalone="no"?>
<!-- Created with Inkscape (http://www.inkscape.org/) -->

<svg
   xmlns:dc="http://purl.org/dc/elements/1.1/"
   xmlns:cc="http://creativecommons.org/ns#"
   xmlns:rdf="http://www.w3.org/1999/02/22-rdf-syntax-ns#"
   xmlns:svg="http://www.w3.org/2000/svg"
   xmlns="http://www.w3.org/2000/svg"
   xmlns:sodipodi="http://sodipodi.sourceforge.net/DTD/sodipodi-0.dtd"
   xmlns:inkscape="http://www.inkscape.org/namespaces/inkscape"
   version="1.1"
   id="svg7645"
   width="976"
   height="637"
   viewBox="0 0 976 637"
   sodipodi:docname="Csángós.svg"
   inkscape:version="0.92.4 (5da689c313, 2019-01-14)">
  <metadata
     id="metadata7651">
    <rdf:RDF>
      <cc:Work
         rdf:about="">
        <dc:format>image/svg+xml</dc:format>
        <dc:type
           rdf:resource="http://purl.org/dc/dcmitype/StillImage" />
        <dc:title />
      </cc:Work>
    </rdf:RDF>
  </metadata>
  <defs
     id="defs7649" />
  <sodipodi:namedview
     pagecolor="#ffffff"
     bordercolor="#666666"
     borderopacity="1"
     objecttolerance="10"
     gridtolerance="10"
     guidetolerance="10"
     inkscape:pageopacity="0"
     inkscape:pageshadow="2"
     inkscape:window-width="1366"
     inkscape:window-height="705"
     id="namedview7647"
     showgrid="false"
     inkscape:zoom="0.59499094"
     inkscape:cx="249.17643"
     inkscape:cy="435.28077"
     inkscape:window-x="-8"
     inkscape:window-y="-8"
     inkscape:window-maximized="1"
     inkscape:current-layer="svg7645" />
  <g
     id="g916">
    <path
       style="fill:#b5b0c1"
       d="M -2.25e-6,318.5 V -1.2e-6 H 488 976 V 318.5 637 H 488 -2.25e-6 Z"
       id="path7663"
       inkscape:connector-curvature="0" />
    <g
       id="g901">
      <rect
         style="fill:#d1041b;fill-opacity:1;stroke:none;stroke-width:1.61879337;stroke-opacity:1"
         id="rect850-1"
         width="446"
         height="276"
         x="0"
         y="0" />
      <path
         style="fill:#deb426;stroke:#000000;stroke-width:2.83464575;stroke-opacity:1"
         d="m 201.90615,42.988493 c -1.20666,-0.14515 -2.19378,4.68776 -4.61914,20.39453 -2.76141,17.88307 -2.93582,18.50599 -5.36328,19.11524 -1.79407,0.45028 -2.80903,0.1342 -3.56055,-1.11328 -0.57813,-0.95968 -3.63698,-5.19527 -6.79687,-9.41016 -3.15989,-4.21489 -5.74739,-8.05588 -5.75,-8.53711 -0.01,-1.77371 -5.30775,-12.625 -6.16406,-12.625 -0.48839,0 -0.76344,7.06584 -0.61328,15.75 0.23643,13.67393 0.53706,16.18815 2.27343,19.07422 1.97754,3.28692 1.9779,3.34026 0.0586,4.75 -1.06765,0.78416 -2.21764,1.42578 -2.55468,1.42578 -0.33704,0 -8.23338,-4.51268 -17.54883,-10.02734 -9.31545,-5.51467 -17.08474,-9.58758 -17.26367,-9.05078 -0.17893,0.53679 4.43064,7.72857 10.24218,15.98242 5.81154,8.25384 10.56641,15.857687 10.56641,16.896477 0,3.26461 -3.23332,5.35422 -6.58594,4.25586 -1.60332,-0.52526 -6.51406,-1.45384 -10.91406,-2.0625 -4.4,-0.60867 -10.81492,-2.01836 -14.25391,-3.13281 -8.32575,-2.69808 -9.89574,-1.88639 -3.72461,1.92578 2.7616,1.70595 8.39515,6.6501 12.51954,10.98633 5.32954,5.6033 8.4329,8.07017 10.72851,8.5293 2.5645,0.5129 3.23047,1.14129 3.23047,3.04882 0,1.3214 -0.5625,2.83607 -1.25,3.36524 -0.6875,0.52917 -8.225,2.67126 -16.75,4.75976 -8.525,2.0885 -16.175,4.15385 -17,4.58985 -2.32597,1.22923 1.76142,2.35069 16,4.39062 18.15527,2.60108 18.44503,2.69197 18.81836,5.87305 0.26708,2.2757 -0.23773,2.9476 -3.12109,4.15234 -1.89168,0.7904 -5.82032,3.46907 -8.73047,5.95313 -2.91014,2.48405 -6.90552,5.03218 -8.87891,5.66211 -5.83966,1.86407 -13.08789,5.09562 -13.08789,5.83594 0,0.37835 7.0875,0.66052 15.75,0.62695 14.19213,-0.055 16.18925,-0.27952 20.1875,-2.27735 3.28953,-1.6437 4.7767,-1.93667 5.75,-1.1289 2.10857,1.74996 1.58289,3.64641 -3.1875,11.5039 -2.475,4.07666 -4.5,7.58495 -4.5,7.79688 0,0.21193 -2.2764,4.05715 -5.05859,8.54297 -2.78219,4.48581 -4.91969,8.83756 -4.75,9.67187 0.21826,1.07308 4.93431,-1.74269 16.11718,-9.625 11.58526,-8.16594 16.32628,-10.97921 17.75,-10.52734 3.21605,1.02073 3.86691,3.51858 2.47461,9.49219 -3.19874,13.72401 -5.78215,27.07526 -5.32812,27.52929 0.27377,0.27377 1.76013,-1.32588 3.30469,-3.55468 1.54456,-2.2288 5.63288,-6.27226 9.08398,-8.98438 4.52513,-3.55616 6.91832,-6.33403 8.58398,-9.96484 1.94596,-4.24179 2.73725,-5.03516 5.02344,-5.03516 2.48538,0 2.88286,0.56749 4.71875,6.75 1.10243,3.7125 2.72326,9.9 3.60352,13.75 2.91637,12.75532 4.61431,17.76069 5.66601,16.70899 0.5445,-0.5445 2.22628,-8.83877 3.73828,-18.4336 1.512,-9.59483 3.07476,-17.97067 3.47071,-18.61133 0.39595,-0.64066 1.53714,-1.16406 2.53711,-1.16406 1.59413,0 3.94132,2.72493 13.98632,16.23828 0.78236,1.05249 2.58236,5.20044 4,9.2168 1.41765,4.01636 2.9579,7.24452 3.42383,7.17383 0.46594,-0.0707 0.78302,-6.63825 0.70313,-14.59375 -0.12022,-11.97127 -0.4832,-15.22763 -2.10352,-18.89063 -2.07968,-4.70146 -1.41598,-7.16098 1.92578,-7.13086 0.89516,0.008 9.01078,4.29876 18.03321,9.53321 9.02242,5.23446 16.81627,9.37894 17.32031,9.21093 0.50405,-0.16802 -1.47782,-3.76723 -4.4043,-7.99804 -2.92648,-4.23082 -7.97521,-11.51119 -11.21875,-16.17774 -5.87798,-8.4568 -5.89063,-8.49186 -4.16406,-11.12695 1.30762,-1.99567 2.26215,-2.49041 3.89648,-2.01563 1.19079,0.34593 7.34102,1.52215 13.66602,2.61329 6.325,1.09114 12.99206,2.46977 14.81641,3.06445 4.64287,1.51343 4.77262,0.71224 0.41796,-2.57422 -2.05459,-1.55061 -5.91597,-5.7264 -8.58203,-9.2793 -3.83489,-5.11053 -5.98898,-6.96597 -10.31445,-8.8789 -4.899,-2.16657 -5.43447,-2.70073 -5.15234,-5.15039 0.30581,-2.65528 0.78547,-2.85526 16.69336,-6.91407 9.00847,-2.29847 16.83594,-4.63672 17.39453,-5.19531 1.23961,-1.23961 0.53095,-1.40763 -17.77344,-4.21484 -7.7,-1.18088 -14.5625,-2.59785 -15.25,-3.15039 -2.2039,-1.77125 -1.37173,-4.64614 1.82422,-6.29883 1.69119,-0.87455 5.78468,-3.77336 9.0957,-6.44141 3.31103,-2.66806 7.21355,-5.14036 8.67383,-5.49414 3.51191,-0.85084 11.15716,-4.52802 11.1543,-5.36523 -10e-4,-0.36343 -6.35112,-0.77325 -14.10938,-0.91016 -12.3888,-0.21863 -14.66948,0.002 -18.74414,1.80469 l -4.64062,2.05078 -1.73828,-2.14453 c -2.03203,-2.50945 -2.75552,-0.82075 8.88867,-20.728517 8.1497,-13.93332 9.21393,-16.23242 7.51367,-16.23242 -0.45737,0 -7.49729,4.725 -15.64453,10.5 -8.14725,5.775 -15.35354,10.5 -16.01367,10.5 -2.48628,0 -4.77795,-3.80207 -4.04493,-6.71094 0.38673,-1.53466 1.08311,-6.45475 1.54688,-10.93554 0.46377,-4.4808 1.82055,-10.42119 3.01562,-13.19922 2.89159,-6.72168 2.06745,-8.49659 -1.58593,-3.41407 -1.61774,2.25058 -5.34415,5.81708 -8.2793,7.92579 -5.78161,4.15371 -9.05442,8.03439 -10.72852,12.71679 -0.58668,1.64092 -1.82418,3.46093 -2.75,4.04492 -3.4847,2.1981 -5.00737,-0.56617 -9.37109,-17.02734 -2.31822,-8.74499 -4.24379,-16.80039 -4.2793,-17.90039 -0.0355,-1.1 -0.50725,-2.675 -1.04883,-3.5 -0.32238,-0.4911 -0.61216,-0.79072 -0.89062,-0.82422 z"
         id="path7661-2"
         inkscape:connector-curvature="0"
         sodipodi:nodetypes="csscscssscsscssccccccssscsccscssscssscssscsccscscssscccssccccccssscsssssccssccscccsssscsccsscscccc" />
    </g>
    <g
       id="g905">
      <rect
         style="fill:#000000;fill-opacity:1;stroke:none;stroke-width:1.61879337;stroke-opacity:1"
         id="rect850"
         width="446"
         height="276"
         x="530"
         y="0" />
      <path
         sodipodi:nodetypes="scccccccccscccss"
         style="fill:#b5b0c1;fill-opacity:1;stroke-width:0.99923271"
         d="m 742.37295,50.042969 c -16.22709,-0.0971 -32.15999,3.85487 -45.07139,11.65625 -6.53775,3.95032 -7.80682,6.30693 -2.85693,5.3086 20.9425,-3.0172 41.57927,-0.20524 56.7897,7.16601 13.27601,6.51085 19.72764,12.22292 27.80884,24.6211 8.37814,12.853601 11.60256,22.504641 11.60256,38.746091 0,16.24144 -3.22442,25.89247 -11.60256,38.74609 -8.0812,12.39818 -14.53283,18.11024 -27.80884,24.62109 -15.21043,7.37125 -35.8472,10.18322 -56.7897,7.16602 -4.94989,-0.99833 -3.68082,1.35827 2.85693,5.30859 21.74549,13.13917 52.0665,15.36051 77.91741,5.70703 24.39841,-9.11108 46.50283,-32.04112 53.43548,-55.43164 3.40869,-11.50063 3.95662,-16.47565 4.04652,-26.11718 -0.0899,-9.93865 -0.63783,-14.61656 -4.04652,-26.11719 -6.93265,-23.390511 -29.03707,-46.320561 -53.43548,-55.431641 -10.50193,-3.92172 -21.74328,-5.88279 -32.84602,-5.94922 z"
         id="path875-8"
         inkscape:connector-curvature="0" />
    </g>
    <rect
       y="361"
       x="0"
       height="276"
       width="446"
       id="rect850-0"
       style="fill:#000000;fill-opacity:1;stroke:none;stroke-width:1.61879337;stroke-opacity:1" />
    <rect
       y="361"
       x="530"
       height="276"
       width="446"
       id="rect850-1-3"
       style="fill:#d1041b;fill-opacity:1;stroke:none;stroke-width:1.61879337;stroke-opacity:1" />
  </g>
</svg>
